<svg xmlns="http://www.w3.org/2000/svg" width="39.455" height="34.477"><switch><g><path d="M35.635.385H3.845A3.06 3.06 0 00.788 3.441v11.002a3.06 3.06 0 003.057 3.056h31.79a3.06 3.06 0 003.057-3.056V3.441A3.06 3.06 0 0035.635.385zm1.834 14.058a1.836 1.836 0 01-1.834 1.834H3.845a1.836 1.836 0 01-1.834-1.834V3.441c0-1.011.823-1.834 1.834-1.834h31.79c1.011 0 1.834.823 1.834 1.834v11.002zm-34.235.612h33.013V2.83H3.234v12.225zm18.34-7.946h11.004V5.886H21.574V4.053h13.45v1.833h-1.223v1.223h1.223v1.222h-13.45V7.109zm0 2.444h13.45v1.223h-13.45V9.553zm0 2.446h13.45v1.834h-13.45v-1.834zm-2.445-7.946h1.223v9.78h-1.223v-9.78zm-14.672 0h13.45v1.833H4.457V4.053zm0 3.056h13.45v1.222H4.457V7.109zm0 4.89H5.68v-1.223H4.457V9.553h13.45v1.223H6.902v1.223h11.004v1.834H4.457v-1.834zm33.444 11.434l-.864-.865-1.655 1.655h-.97v-.97l1.655-1.654-.864-.865-.79.791v-1.581H33.19v1.581l-.79-.791-.864.865 1.655 1.654v.97h-.97l-1.655-1.655-.864.865.791.79H28.91v1.222h1.581l-.791.791.864.864 1.655-1.655h.97v.97l-1.655 1.654.864.864.79-.79v1.581h1.223v-1.581l.79.79.864-.864-1.655-1.654v-.97h.97l1.655 1.655.864-.864-.79-.791h1.581v-1.222h-1.581l.792-.79zM9.78 27.711l-.864-.864-1.656 1.655h-.97v-.969l1.655-1.655-.864-.865-.79.79v-1.58H5.068v1.58l-.79-.79-.864.865 1.655 1.655v.969h-.97l-1.655-1.654-.864.864.79.79H.789v1.222H2.37l-.79.79.864.865 1.655-1.655h.97v.97l-1.655 1.655.864.865.79-.79v1.581h1.223v-1.581l.79.79.864-.865-1.655-1.655v-.97h.97l1.655 1.655.864-.865-.791-.79h1.581v-1.222h-1.58l.791-.791z" fill="#afafaf"/></g></switch></svg>