<svg xmlns="http://www.w3.org/2000/svg" width="38" height="38.12"><switch><g><path d="M18.977.71C8.797.71.546 8.968.546 19.155.557 29.337 8.802 37.589 18.977 37.6c10.18 0 18.431-8.258 18.431-18.445S29.156.71 18.977.71zm0 35.66c-9.501 0-17.203-7.708-17.203-17.215C1.785 9.651 9.48 1.95 18.977 1.939c9.501 0 17.203 7.708 17.203 17.215-.001 9.508-7.703 17.216-17.203 17.216zm.004-32.591C10.498 3.776 3.62 10.656 3.617 19.145a14.82 14.82 0 00.133 2.03 1.23 1.23 0 001.219 1.054h8.516a1.217 1.217 0 001.217-1.082 4.301 4.301 0 018.551 0 1.217 1.217 0 001.217 1.082h8.516a1.23 1.23 0 001.218-1.053c.09-.67.135-1.345.134-2.021 0-8.49-6.874-15.373-15.357-15.376zm4.433 14.535a5.5 5.5 0 00-1.137-1.143l3.064-2.097a.123.123 0 01.166.176l-2.093 3.064zm9.576 2.685h-.006l-8.511.015a5.572 5.572 0 00-.383-1.512l2.427-3.553a1.353 1.353 0 00-1.875-1.887l-3.559 2.435a5.519 5.519 0 00-4.921.353 5.53 5.53 0 00-2.677 4.148l-8.516.008A14.145 14.145 0 0111.915 6.9a14.125 14.125 0 0114.131.005 14.146 14.146 0 017.062 12.249c0 .617-.039 1.234-.118 1.845zm-13.3 3.597c.164-.037.324-.087.479-.15.013-.005.023-.013.036-.019.351-.153.671-.37.942-.64.062-.062.102-.128.154-.189.08-.087.156-.18.225-.276.052-.086.1-.174.143-.264.052-.088.099-.178.142-.27.034-.083.052-.168.079-.252.038-.107.07-.216.096-.328.017-.088.017-.177.027-.266.017-.109.028-.218.033-.329a3.03 3.03 0 00-.033-.329c-.01-.088-.01-.178-.027-.266a3.152 3.152 0 00-.096-.328c-.026-.084-.045-.17-.079-.252a3.033 3.033 0 00-.142-.271 3.062 3.062 0 00-.143-.264 3.115 3.115 0 00-.225-.276c-.053-.061-.095-.13-.154-.19a3.06 3.06 0 00-.943-.639c-.013-.005-.023-.013-.036-.019a3.204 3.204 0 00-.479-.15c-.034-.007-.065-.023-.1-.03a3.064 3.064 0 00-1.229 0c-.034.007-.066.022-.1.03a3.092 3.092 0 00-.479.15c-.013.006-.023.014-.036.019a3.078 3.078 0 00-.943.639c-.061.061-.101.128-.154.19-.081.088-.156.18-.226.276a2.92 2.92 0 00-.143.264 3.033 3.033 0 00-.142.271c-.034.082-.052.167-.079.252a2.865 2.865 0 00-.096.328c-.017.088-.017.177-.027.266-.017.11-.028.219-.033.329.005.11.016.22.033.329.01.089.01.178.027.266.026.111.058.22.096.328.026.085.045.17.079.252.043.092.09.182.142.27.043.09.091.178.143.264.069.096.145.188.225.276.053.061.095.13.154.189.272.27.592.487.943.64.013.005.023.013.036.019.155.063.315.113.479.15.034.008.065.024.1.03.405.083.823.083 1.229 0 .037-.006.068-.022.102-.03zm-1.956-1.629h-.003a1.833 1.833 0 01-.154-.164 1.91 1.91 0 01-.133-.162 1.723 1.723 0 01-.088-.164 1.445 1.445 0 01-.082-.156c-.022-.052-.033-.108-.05-.161a2.038 2.038 0 01-.055-.184 1.722 1.722 0 01-.019-.19 1.704 1.704 0 010-.335c.003-.064.009-.128.019-.19.015-.063.033-.125.055-.185.017-.053.029-.109.05-.161.021-.052.055-.104.082-.157.026-.056.056-.111.088-.164.041-.056.085-.11.133-.161a1.855 1.855 0 01.682-.512c.093-.038.189-.068.287-.09.02-.005.039-.014.062-.018.243-.05.494-.05.737 0 .021.004.04.013.062.018.098.022.194.052.287.09.008 0 .015.009.023.012.256.115.482.286.661.502.047.051.09.105.131.16.032.053.062.108.088.164.027.052.062.103.082.157.021.054.033.108.05.161.021.061.04.122.055.185.012.061.014.128.02.193.01.11.01.219 0 .328-.006.065-.007.131-.02.194a1.626 1.626 0 01-.055.184c-.017.053-.029.11-.05.161-.022.052-.055.105-.082.157a1.817 1.817 0 01-.088.163c-.041.056-.085.11-.131.161a1.82 1.82 0 01-1.287.655 1.83 1.83 0 01-1.357-.491zm9.934-12.508c-.006-.006-.016-.009-.022-.015a12.062 12.062 0 00-2.808-2.095 7.992 7.992 0 00-.535-.275 9.894 9.894 0 00-.608-.271c-.005 0-.008-.007-.013-.009-.006-.003-.01 0-.014 0l-.032-.012a5.295 5.295 0 00-.498-.195c-.543-.2-1.101-.357-1.669-.472a9.527 9.527 0 00-.601-.109c-.019-.004-.037-.008-.057-.01a15 15 0 00-1.106-.117 13.749 13.749 0 00-1.464 0 14.85 14.85 0 00-1.15.125c-.205.033-.403.062-.588.107-.566.113-1.122.269-1.663.468a5.332 5.332 0 00-.518.201l-.032.013h-.014c-.004 0-.008.006-.013.009a9.31 9.31 0 00-.6.268 12.126 12.126 0 00-3.351 2.374c-.007.006-.015.008-.022.015-.007.007-.008.015-.014.021a12.112 12.112 0 00-2.095 2.812 8.208 8.208 0 00-.274.535 7.563 7.563 0 00-.263.589l-.007.017c0 .006-.008.009-.011.015-.003.006 0 .013-.004.019-.004.007-.008.019-.012.029a5.158 5.158 0 00-.193.497 11.015 11.015 0 00-.472 1.672 9.559 9.559 0 00-.11.602l-.009.054a15.1 15.1 0 00-.115 1.107c-.015.236-.022.482-.022.727 0 .339.275.615.615.615h1.843a.616.616 0 000-1.23H7.934v-.037c.023-.337.057-.669.104-.996 0-.011.004-.022.006-.034.028-.184.057-.361.1-.55.098-.485.231-.961.399-1.426l1.115.462a.615.615 0 00.47-1.137l-1.116-.463v-.006a10.797 10.797 0 011.731-2.571l.85.851a.614.614 0 10.869-.87l-.854-.848a10.908 10.908 0 012.106-1.488c.151-.085.303-.164.469-.241l.463 1.118a.614.614 0 101.134-.469l-.46-1.118c.469-.169.95-.304 1.439-.402a7.79 7.79 0 01.536-.097c.012 0 .025-.005.037-.008.325-.045.656-.081.983-.104h.047v1.21a.615.615 0 101.229 0V8.103h.037c.336.024.667.062.99.104l.039.008c.184.028.359.057.553.1.484.098.96.232 1.425.399l-.464 1.118a.613.613 0 00.567.849c.249 0 .473-.15.568-.38l.462-1.118.006.003a10.78 10.78 0 012.568 1.729l-.851.851a.614.614 0 10.869.869l.847-.854a10.8 10.8 0 011.728 2.576l-1.118.463a.615.615 0 00.471 1.137l1.116-.463a10.256 10.256 0 01.497 1.977c0 .011.004.022.006.033.046.327.081.658.104.988v.046h-1.208a.615.615 0 000 1.23h1.843c.34 0 .615-.276.615-.615 0-.246-.007-.492-.02-.737a14.877 14.877 0 00-.116-1.096c0-.018-.005-.036-.009-.053a9.377 9.377 0 00-.107-.592 11.053 11.053 0 00-.468-1.664 5.647 5.647 0 00-.202-.52.3.3 0 00-.011-.032v-.013c0-.004-.007-.008-.009-.013a9.31 9.31 0 00-.268-.6 12.112 12.112 0 00-2.373-3.354c-.002-.005-.004-.014-.01-.02zM14.062 27.147a.614.614 0 000-1.23h-1.229a1.23 1.23 0 00-1.229 1.23v4.305a.614.614 0 001.229 0v-1.845h1.229a.614.614 0 000-1.23h-1.229v-1.23h1.229zm4.3-1.229a.615.615 0 00-.614.615v3.689a.614.614 0 01-1.229 0v-3.689a.615.615 0 00-1.229 0v3.689a1.843 1.843 0 103.686 0v-3.689a.614.614 0 00-.614-.615zm3.687 1.229a.614.614 0 000-1.23H20.82a1.23 1.23 0 00-1.229 1.23v3.689c0 .68.55 1.23 1.229 1.23h1.229a.614.614 0 000-1.229H20.82v-1.229h1.229a.614.614 0 000-1.23H20.82v-1.23h1.229zm4.3 3.689h-1.843v-4.304a.615.615 0 00-1.229 0v4.919c0 .339.275.614.614.614h2.457a.615.615 0 00.001-1.229z" fill="#afafaf"/></g></switch></svg>